<svg aria-hidden="true" style="position: absolute; width: 0; height: 0; overflow: hidden;" version="1.1" xmlns="http://www.w3.org/2000/svg" xmlns:xlink="http://www.w3.org/1999/xlink">
<defs>
<symbol id="icon-icon-send" viewBox="0 0 32 32">
<path d="M32 0l-32 18 10.227 3.788 15.773-14.788-11.998 16.186 0.010 0.004-0.012-0.004v8.814l5.735-6.691 7.265 2.691 5-28z"></path>
</symbol>
<symbol id="icon-person-black-18dp-1" viewBox="0 0 32 32">
<path d="M16 16c2.947 0 5.333-2.387 5.333-5.333s-2.387-5.333-5.333-5.333c-2.947 0-5.333 2.387-5.333 5.333s2.387 5.333 5.333 5.333zM16 18.667c-3.56 0-10.667 1.787-10.667 5.333v1.333c0 0.733 0.6 1.333 1.333 1.333h18.667c0.733 0 1.333-0.6 1.333-1.333v-1.333c0-3.547-7.107-5.333-10.667-5.333z"></path>
</symbol>
<symbol id="icon-phone-black-18dp-1" viewBox="0 0 32 32">
<path d="M24.882 19.773l-3.268-0.373c-0.785-0.090-1.557 0.18-2.11 0.733l-2.367 2.367c-3.641-1.853-6.626-4.825-8.478-8.478l2.38-2.38c0.553-0.553 0.823-1.325 0.733-2.11l-0.373-3.242c-0.154-1.299-1.248-2.277-2.56-2.277h-2.226c-1.454 0-2.663 1.209-2.573 2.663 0.682 10.987 9.469 19.761 20.443 20.443 1.454 0.090 2.663-1.119 2.663-2.573v-2.226c0.013-1.299-0.965-2.393-2.264-2.547z"></path>
</symbol>
<symbol id="icon-email-black-18dp-1" viewBox="0 0 32 32">
<path d="M26.667 5.333h-21.333c-1.467 0-2.653 1.2-2.653 2.667l-0.013 16c0 1.467 1.2 2.667 2.667 2.667h21.333c1.467 0 2.667-1.2 2.667-2.667v-16c0-1.467-1.2-2.667-2.667-2.667zM26.133 11l-9.427 5.893c-0.427 0.267-0.987 0.267-1.413 0l-9.427-5.893c-0.333-0.213-0.533-0.573-0.533-0.96 0-0.893 0.973-1.427 1.733-0.96l8.933 5.587 8.933-5.587c0.76-0.467 1.733 0.067 1.733 0.96 0 0.387-0.2 0.747-0.533 0.96z"></path>
</symbol>
<symbol id="icon-close" viewBox="0 0 32 32">
<path d="M29.778 4.997l-2.775-2.775-11.003 11.003-11.003-11.003-2.775 2.775 11.003 11.003-11.003 11.003 2.775 2.775 11.003-11.003 11.003 11.003 2.775-2.775-11.003-11.003 11.003-11.003z"></path>
</symbol>
<symbol id="icon-logo-5" viewBox="0 0 64 32">
<path d="M32.36 15.098c-0.302-0.403-0.448-0.88-0.413-1.358v-1.97c0-0.604 0.137-1.063 0.411-1.377s0.744-0.471 1.411-0.469c0.627 0 1.071 0.133 1.335 0.401 0.287 0.341 0.426 0.758 0.394 1.178v0.463h-1.121v-0.469c0.004-0.154-0.007-0.307-0.032-0.459-0.017-0.104-0.073-0.2-0.16-0.272-0.115-0.079-0.26-0.116-0.407-0.107-0.154-0.010-0.306 0.030-0.427 0.112-0.098 0.081-0.163 0.186-0.186 0.3-0.032 0.161-0.047 0.324-0.044 0.487v2.391c-0.017 0.231 0.032 0.461 0.144 0.671 0.056 0.071 0.133 0.127 0.223 0.163s0.191 0.049 0.289 0.038c0.144 0.010 0.287-0.028 0.397-0.108 0.092-0.079 0.15-0.18 0.167-0.291 0.026-0.159 0.038-0.319 0.035-0.479v-0.485h1.121v0.443c0.032 0.439-0.105 0.874-0.388 1.238-0.257 0.293-0.696 0.439-1.341 0.439s-1.133-0.156-1.409-0.481z"></path>
<path d="M37.028 15.118c-0.283-0.306-0.424-0.754-0.424-1.345v-2.072c0-0.585 0.141-1.028 0.424-1.328s0.756-0.45 1.42-0.449c0.659 0 1.131 0.15 1.414 0.449 0.283 0.3 0.427 0.743 0.427 1.328v2.072c0 0.585-0.144 1.034-0.432 1.343s-0.756 0.463-1.409 0.463c-0.653 0-1.135-0.156-1.42-0.461zM38.971 14.621c0.101-0.192 0.148-0.403 0.135-0.613v-2.537c0.013-0.207-0.032-0.413-0.133-0.602-0.056-0.073-0.137-0.13-0.229-0.165s-0.195-0.047-0.296-0.035c-0.101-0.012-0.203 0-0.296 0.036s-0.173 0.092-0.231 0.165c-0.102 0.188-0.148 0.394-0.135 0.602v2.549c-0.015 0.21 0.032 0.422 0.135 0.613 0.066 0.064 0.146 0.116 0.236 0.152s0.189 0.054 0.289 0.054c0.099 0 0.197-0.019 0.289-0.054s0.171-0.088 0.236-0.152v-0.012z"></path>
<path d="M41.638 9.984h1.206l0.908 3.823 0.928-3.823h1.174l0.118 5.518h-0.868l-0.093-3.835-0.896 3.835h-0.696l-0.928-3.849-0.086 3.849h-0.878l0.109-5.518z"></path>
<path d="M47.327 9.984h1.88c1.084 0 1.624 0.522 1.624 1.567 0 1-0.57 1.5-1.711 1.499h-0.641v2.453h-1.161l0.007-5.518zM48.933 12.342c0.114 0.013 0.231 0.004 0.341-0.026s0.212-0.081 0.297-0.148c0.133-0.186 0.192-0.405 0.167-0.623 0.006-0.169-0.013-0.337-0.056-0.501-0.017-0.055-0.045-0.107-0.086-0.152s-0.090-0.083-0.146-0.111c-0.161-0.067-0.339-0.097-0.518-0.088h-0.45v1.649h0.45z"></path>
<path d="M52.505 9.984h1.246l1.279 5.518h-1.082l-0.253-1.272h-1.112l-0.26 1.272h-1.098l1.279-5.518zM53.571 13.59l-0.434-2.316-0.434 2.316h0.868z"></path>
<path d="M56.063 9.984h0.812l1.555 3.148v-3.148h0.964v5.518h-0.773l-1.564-3.286v3.286h-0.996l0.002-5.518z"></path>
<path d="M61.65 13.398l-1.293-3.406h1.088l0.789 2.189 0.741-2.189h1.065l-1.277 3.406v2.104h-1.114v-2.104z"></path>
<path d="M34.153 17.915v0.289h-0.947v2.242h-0.397v-2.242h-0.951v-0.289h2.296z"></path>
<path d="M37.121 20.445h-0.306c-0.032 0.002-0.062-0.007-0.086-0.024-0.023-0.015-0.041-0.035-0.051-0.058l-0.274-0.601h-1.313l-0.274 0.601c-0.008 0.025-0.022 0.049-0.042 0.068-0.024 0.017-0.055 0.025-0.086 0.024h-0.306l1.161-2.53h0.404l1.174 2.521zM35.199 19.506h1.096l-0.465-1.030c-0.034-0.078-0.063-0.158-0.086-0.238-0.017 0.049-0.030 0.094-0.044 0.135l-0.042 0.107-0.46 1.028z"></path>
<path d="M39.122 20.197c0.073 0.004 0.146 0.004 0.218 0 0.062-0.006 0.125-0.015 0.186-0.030 0.056-0.012 0.113-0.028 0.167-0.047 0.051-0.018 0.102-0.040 0.156-0.062v-0.569h-0.464c-0.011 0-0.023-0-0.034-0.004s-0.021-0.009-0.029-0.015c-0.008-0.006-0.013-0.013-0.017-0.021s-0.006-0.017-0.006-0.025v-0.195h0.9v0.97c-0.073 0.045-0.152 0.086-0.232 0.12-0.083 0.035-0.169 0.064-0.257 0.086-0.095 0.024-0.192 0.041-0.291 0.052-0.113 0.011-0.225 0.017-0.339 0.016-0.2 0.002-0.399-0.030-0.585-0.094-0.174-0.060-0.332-0.15-0.464-0.265-0.129-0.116-0.231-0.251-0.3-0.401-0.073-0.167-0.109-0.345-0.107-0.525-0.002-0.18 0.033-0.36 0.105-0.529 0.067-0.15 0.169-0.287 0.3-0.401 0.133-0.114 0.291-0.203 0.465-0.263 0.199-0.064 0.409-0.096 0.622-0.094 0.108-0 0.216 0.007 0.323 0.022 0.094 0.013 0.187 0.035 0.276 0.064 0.081 0.026 0.159 0.060 0.232 0.1 0.071 0.039 0.139 0.084 0.202 0.133l-0.111 0.156c-0.009 0.015-0.022 0.026-0.038 0.035s-0.034 0.013-0.053 0.013c-0.026-0-0.051-0.008-0.072-0.020-0.035-0.017-0.072-0.036-0.114-0.060-0.049-0.026-0.101-0.049-0.156-0.068-0.069-0.024-0.141-0.043-0.214-0.056-0.097-0.015-0.196-0.023-0.295-0.022-0.153-0.002-0.305 0.022-0.448 0.070-0.129 0.045-0.246 0.113-0.341 0.201-0.096 0.092-0.169 0.199-0.216 0.315-0.103 0.274-0.103 0.57 0 0.844 0.051 0.119 0.13 0.227 0.232 0.319 0.095 0.087 0.21 0.155 0.339 0.201 0.148 0.043 0.304 0.060 0.46 0.050z"></path>
<path d="M42.822 20.157h1.268v0.289h-1.655v-2.531h0.397l-0.009 2.242z"></path>
<path d="M45.407 20.445h-0.397v-2.531h0.397v2.531z"></path>
<path d="M46.884 17.926c0.024 0.011 0.045 0.028 0.060 0.047l1.697 1.908c-0.002-0.030-0.002-0.060 0-0.090 0-0.028 0-0.056 0-0.082v-1.804h0.345v2.541h-0.199c-0.030 0.002-0.060-0.003-0.086-0.015-0.024-0.013-0.045-0.029-0.062-0.049l-1.694-1.906c0 0.030 0 0.058 0 0.086s0 0.054 0 0.078v1.804h-0.332v-2.531h0.206c0.022 0 0.045 0.004 0.065 0.012z"></path>
<path d="M51.909 17.915v0.279h-1.407v0.836h1.14v0.268h-1.14v0.863h1.407v0.279h-1.815v-2.525h1.815z"></path>
<path d="M10.317 2.285l17.624 4.32v15.139l-17.624-4.318v-15.141zM9.187 0.995v17.167l19.882 4.875v-17.165l-19.882-4.877z"></path>
<path d="M19.843 31.006l-19.884-4.879v-17.165l19.884 4.877v17.167z"></path>
<path d="M9.516 2.090l17.394 4.266-7.398 6.388-17.397-4.268 7.4-6.386zM9.187 0.995l-9.229 7.968 19.884 4.877 9.226-7.968-19.882-4.877z"></path>
<path d="M20.962 30.040l8.107-7.002-8.107-1.99v8.991z"></path>
</symbol>
<symbol id="icon-logo-4" viewBox="0 0 64 32">
<path d="M13.492 26.647c0.17 0.192 0.261 0.434 0.256 0.682 0.008 0.162-0.022 0.323-0.091 0.472s-0.173 0.282-0.305 0.389c-0.331 0.228-0.74 0.341-1.153 0.315h-2.027v-4.322h1.986c0.392-0.024 0.781 0.077 1.1 0.287 0.129 0.099 0.23 0.222 0.297 0.363s0.097 0.293 0.089 0.446c0.012 0.238-0.070 0.473-0.23 0.66-0.154 0.172-0.367 0.291-0.604 0.337 0.269 0.045 0.511 0.176 0.685 0.369zM11.115 25.994h0.848c0.193 0.014 0.384-0.038 0.539-0.143 0.064-0.053 0.113-0.119 0.145-0.192s0.044-0.152 0.037-0.23c0.006-0.078-0.008-0.157-0.038-0.23s-0.079-0.139-0.142-0.192c-0.16-0.109-0.357-0.16-0.555-0.145h-0.835v1.134zM12.586 27.652c0.068-0.054 0.121-0.121 0.157-0.198s0.050-0.159 0.044-0.241c0.006-0.083-0.010-0.167-0.046-0.244s-0.090-0.145-0.159-0.2c-0.166-0.113-0.37-0.168-0.577-0.156h-0.89v1.189h0.902c0.203 0.010 0.404-0.042 0.569-0.15z"></path>
<path d="M17.551 28.506l-1.104-1.689h-0.415v1.689h-0.95v-4.322h1.798c0.454-0.029 0.902 0.103 1.253 0.367 0.252 0.234 0.403 0.543 0.428 0.872s-0.079 0.652-0.294 0.916c-0.222 0.232-0.525 0.388-0.858 0.44l1.176 1.727h-1.033zM16.031 26.227h0.777c0.539 0 0.809-0.218 0.809-0.654 0.006-0.089-0.010-0.178-0.044-0.262s-0.087-0.16-0.155-0.224c-0.171-0.13-0.39-0.193-0.611-0.175h-0.787l0.010 1.316z"></path>
<path d="M22.743 27.635h-1.893l-0.335 0.87h-0.997l1.739-4.274h1.077l1.732 4.274h-0.997l-0.327-0.87zM22.49 26.98l-0.692-1.824-0.692 1.824h1.384z"></path>
<path d="M29.245 28.505h-0.943l-2.115-2.939v2.939h-0.941v-4.322h0.941l2.115 2.956v-2.956h0.943v4.322z"></path>
<path d="M34.627 27.471c-0.195 0.327-0.492 0.592-0.853 0.763-0.41 0.19-0.866 0.283-1.326 0.272h-1.679v-4.322h1.679c0.459-0.012 0.914 0.081 1.326 0.266 0.361 0.167 0.658 0.43 0.853 0.753 0.194 0.351 0.295 0.74 0.295 1.134s-0.101 0.783-0.295 1.134zM33.548 27.366c0.269-0.287 0.417-0.653 0.417-1.031s-0.148-0.745-0.417-1.031c-0.325-0.26-0.749-0.392-1.181-0.367h-0.654v2.797h0.654c0.431 0.024 0.856-0.107 1.181-0.367z"></path>
<path d="M23.334 0.142c0 0 12.173 4.208 11.915 10.298v10.3c0 0-12.165-4.21-11.911-10.3l-0.004-10.298z"></path>
<path d="M46.094 18.327c2.299-1.449 4.958-2.345 7.735-2.61v-3.225c-3.199 1.128-5.911 3.175-7.735 5.834z"></path>
<path d="M44.714 19.299c1.881-3.469 5.144-6.147 9.116-7.481v-9.29c0 0-17.337 5.994-16.97 14.666v14.664c0 0 0.773-0.268 1.988-0.771 0-0.468 0-0.942 0.055-1.417 0.359-4.026 2.45-7.756 5.812-10.371z"></path>
<path d="M43.065 24.747c0.091-1.017 0.294-2.023 0.607-3.003-2.093 2.258-3.362 5.061-3.625 8.012-0.026 0.279-0.039 0.557-0.046 0.844 0.985-0.432 2.131-0.973 3.334-1.609-0.307-1.397-0.398-2.826-0.27-4.246z"></path>
<path d="M43.754 24.799c-0.115 1.285-0.044 2.577 0.214 3.845 4.737-2.595 10.058-6.605 9.854-11.45v-0.422c-3.384 0.347-6.55 1.701-9.012 3.855-0.577 1.334-0.932 2.741-1.056 4.172z"></path>
</symbol>
<symbol id="icon-logo-3" viewBox="0 0 64 32">
<path d="M15.596 9.883h-0.002c-1.855 0-3.358 1.336-3.358 2.985v0.002c0 1.648 1.504 2.985 3.358 2.985h0.002c1.855 0 3.358-1.336 3.358-2.985v-0.002c0-1.648-1.504-2.985-3.358-2.985z"></path>
<path d="M40.383 8.929c-0.006-2.289-1.031-4.483-2.852-6.103s-4.29-2.531-6.867-2.536v0c-2.577 0.004-5.047 0.915-6.869 2.535s-2.849 3.814-2.854 6.104v12.625c0 0 19.439-1.924 19.441-12.623v-0.002z"></path>
<path d="M5.428 25.697c0.004 1.593 0.719 3.12 1.986 4.246s2.985 1.761 4.777 1.766c1.792-0.004 3.509-0.64 4.776-1.765s1.981-2.653 1.987-4.245v-8.784c0 0-13.526 1.34-13.526 8.782zM12.192 27.271c-0.35 0-0.693-0.092-0.984-0.265s-0.518-0.419-0.652-0.707c-0.134-0.287-0.169-0.604-0.101-0.909s0.237-0.585 0.485-0.805c0.248-0.22 0.563-0.37 0.907-0.43s0.699-0.030 1.023 0.090c0.324 0.119 0.601 0.32 0.795 0.579s0.298 0.563 0.298 0.874c0 0.208-0.045 0.412-0.133 0.604s-0.219 0.366-0.383 0.513c-0.165 0.147-0.36 0.263-0.575 0.343s-0.446 0.12-0.679 0.12v-0.006z"></path>
<path d="M25.861 26.404h-1.305v1.349h-0.68v-3.299h2.148v0.55h-1.469v0.852h1.305v0.548zM29.129 26.178c0 0.324-0.057 0.609-0.172 0.854s-0.279 0.434-0.494 0.566c-0.213 0.133-0.458 0.2-0.734 0.2-0.273 0-0.517-0.065-0.732-0.197s-0.381-0.318-0.499-0.562c-0.118-0.245-0.177-0.526-0.179-0.843v-0.163c0-0.324 0.058-0.61 0.175-0.856 0.118-0.248 0.283-0.438 0.497-0.569 0.214-0.133 0.459-0.2 0.734-0.2s0.519 0.067 0.732 0.2c0.214 0.131 0.379 0.321 0.497 0.569 0.118 0.246 0.177 0.531 0.177 0.854v0.147zM28.44 26.029c0-0.346-0.062-0.609-0.186-0.789s-0.301-0.269-0.53-0.269c-0.228 0-0.404 0.089-0.528 0.267-0.124 0.177-0.187 0.436-0.188 0.78v0.161c0 0.337 0.062 0.599 0.186 0.784s0.302 0.279 0.534 0.279c0.228 0 0.403-0.089 0.526-0.267 0.122-0.18 0.184-0.441 0.186-0.784v-0.161zM31.333 26.887c0-0.128-0.045-0.226-0.136-0.295s-0.254-0.142-0.489-0.218c-0.236-0.077-0.422-0.153-0.56-0.226-0.375-0.202-0.562-0.475-0.562-0.818 0-0.178 0.049-0.337 0.149-0.476 0.102-0.141 0.245-0.25 0.432-0.328 0.189-0.079 0.4-0.118 0.634-0.118 0.236 0 0.446 0.043 0.63 0.129 0.184 0.085 0.327 0.204 0.428 0.361 0.102 0.155 0.154 0.332 0.154 0.53h-0.68c0-0.151-0.047-0.269-0.143-0.351-0.095-0.085-0.229-0.127-0.401-0.127-0.167 0-0.295 0.035-0.387 0.106-0.092 0.069-0.138 0.161-0.138 0.277 0 0.108 0.053 0.197 0.161 0.269s0.269 0.141 0.478 0.204c0.387 0.116 0.668 0.261 0.845 0.432s0.265 0.387 0.265 0.644c0 0.285-0.108 0.51-0.324 0.673-0.216 0.161-0.507 0.242-0.872 0.242-0.254 0-0.485-0.046-0.693-0.138-0.208-0.094-0.368-0.222-0.478-0.383-0.108-0.161-0.163-0.349-0.163-0.562h0.682c0 0.364 0.218 0.546 0.652 0.546 0.161 0 0.288-0.033 0.379-0.098 0.090-0.067 0.136-0.159 0.136-0.277zM34.961 25.004h-1.011v2.749h-0.68v-2.749h-0.997v-0.55h2.688v0.55zM37.335 26.323h-1.306v0.884h1.532v0.546h-2.211v-3.299h2.207v0.55h-1.527v0.786h1.306v0.532zM39.182 26.545h-0.542v1.208h-0.68v-3.299h1.226c0.389 0 0.691 0.087 0.902 0.261s0.318 0.419 0.318 0.736c0 0.225-0.049 0.413-0.147 0.564-0.096 0.149-0.244 0.269-0.442 0.358l0.714 1.349v0.032h-0.73l-0.619-1.208zM38.641 25.995h0.548c0.171 0 0.303-0.043 0.397-0.129 0.094-0.088 0.141-0.208 0.141-0.36 0-0.155-0.045-0.278-0.134-0.367s-0.222-0.134-0.406-0.134h-0.546v0.99zM42.76 26.59v1.163h-0.68v-3.299h1.287c0.248 0 0.465 0.045 0.652 0.136 0.189 0.090 0.334 0.22 0.435 0.387s0.151 0.356 0.151 0.569c0 0.324-0.111 0.579-0.333 0.766-0.22 0.186-0.526 0.279-0.917 0.279h-0.595zM42.76 26.040h0.607c0.18 0 0.316-0.043 0.41-0.127s0.143-0.206 0.143-0.363c0-0.161-0.047-0.292-0.143-0.392s-0.226-0.151-0.395-0.154h-0.623v1.035zM47.061 26.323h-1.306v0.884h1.532v0.546h-2.211v-3.299h2.207v0.55h-1.527v0.786h1.306v0.532zM50.215 25.004h-1.011v2.749h-0.68v-2.749h-0.997v-0.55h2.688v0.55zM52.59 26.323h-1.306v0.884h1.532v0.546h-2.211v-3.299h2.207v0.55h-1.527v0.786h1.306v0.532zM54.437 26.545h-0.542v1.208h-0.68v-3.299h1.226c0.389 0 0.691 0.087 0.902 0.261s0.318 0.419 0.318 0.736c0 0.225-0.049 0.413-0.147 0.564-0.096 0.149-0.244 0.269-0.442 0.358l0.713 1.349v0.032h-0.73l-0.619-1.208zM53.895 25.995h0.548c0.171 0 0.303-0.043 0.397-0.129 0.094-0.088 0.141-0.208 0.141-0.36 0-0.155-0.045-0.278-0.134-0.367s-0.222-0.134-0.406-0.134h-0.546v0.99zM57.889 26.887c0-0.128-0.045-0.226-0.136-0.295s-0.254-0.142-0.489-0.218c-0.236-0.077-0.422-0.153-0.56-0.226-0.375-0.202-0.562-0.475-0.562-0.818 0-0.178 0.050-0.337 0.149-0.476 0.102-0.141 0.245-0.25 0.432-0.328 0.189-0.079 0.4-0.118 0.634-0.118 0.236 0 0.446 0.043 0.63 0.129 0.184 0.085 0.327 0.204 0.428 0.361 0.102 0.155 0.154 0.332 0.154 0.53h-0.68c0-0.151-0.047-0.269-0.143-0.351-0.095-0.085-0.229-0.127-0.401-0.127-0.166 0-0.295 0.035-0.387 0.106-0.092 0.069-0.138 0.161-0.138 0.277 0 0.108 0.053 0.197 0.161 0.269s0.269 0.141 0.478 0.204c0.387 0.116 0.668 0.261 0.845 0.432s0.265 0.387 0.265 0.644c0 0.285-0.108 0.51-0.324 0.673-0.216 0.161-0.507 0.242-0.872 0.242-0.254 0-0.485-0.046-0.693-0.138-0.208-0.094-0.368-0.222-0.478-0.383-0.108-0.161-0.163-0.349-0.163-0.562h0.682c0 0.364 0.218 0.546 0.652 0.546 0.161 0 0.288-0.033 0.379-0.098 0.090-0.067 0.136-0.159 0.136-0.277z"></path>
</symbol>
<symbol id="icon-logo-2" viewBox="0 0 64 32">
<path d="M20.549 31.121c0.012 0 0.024 0.002 0.035 0.008s0.021 0.010 0.029 0.018l0.167 0.159c-0.13 0.129-0.289 0.232-0.468 0.302-0.21 0.077-0.436 0.114-0.664 0.108-0.214 0.004-0.426-0.031-0.625-0.102-0.179-0.065-0.338-0.163-0.47-0.285-0.134-0.128-0.238-0.279-0.304-0.442-0.073-0.182-0.108-0.373-0.106-0.566-0.004-0.194 0.036-0.387 0.114-0.568 0.073-0.165 0.183-0.314 0.322-0.442 0.142-0.124 0.312-0.222 0.499-0.287 0.205-0.069 0.423-0.104 0.643-0.102 0.204-0.004 0.407 0.027 0.597 0.092 0.165 0.063 0.316 0.149 0.448 0.255l-0.139 0.171c-0.010 0.012-0.022 0.022-0.035 0.031-0.016 0.010-0.037 0.014-0.057 0.012-0.022-0.002-0.043-0.008-0.061-0.018l-0.075-0.045-0.104-0.057c-0.045-0.022-0.092-0.040-0.139-0.057-0.061-0.019-0.125-0.034-0.189-0.045-0.082-0.014-0.165-0.019-0.248-0.018-0.159-0.002-0.316 0.024-0.462 0.076-0.137 0.047-0.26 0.12-0.362 0.214-0.104 0.098-0.184 0.214-0.235 0.34-0.059 0.144-0.088 0.296-0.085 0.448-0.002 0.155 0.026 0.309 0.085 0.456 0.051 0.125 0.13 0.24 0.231 0.338 0.096 0.092 0.214 0.163 0.346 0.21 0.136 0.049 0.281 0.073 0.428 0.073 0.085 0.002 0.169-0.004 0.254-0.014 0.137-0.014 0.269-0.057 0.385-0.122 0.059-0.033 0.114-0.071 0.165-0.112 0.021-0.018 0.049-0.028 0.079-0.029z"></path>
<path d="M25.356 30.321c0.002 0.192-0.035 0.383-0.112 0.562-0.068 0.163-0.175 0.312-0.314 0.436s-0.306 0.222-0.491 0.287c-0.407 0.135-0.858 0.135-1.265 0-0.184-0.065-0.351-0.163-0.489-0.287-0.139-0.127-0.246-0.277-0.316-0.442-0.15-0.364-0.15-0.762 0-1.126 0.071-0.165 0.179-0.315 0.316-0.444 0.139-0.12 0.306-0.214 0.489-0.277 0.407-0.137 0.858-0.137 1.265 0 0.185 0.065 0.352 0.163 0.491 0.287 0.137 0.126 0.244 0.273 0.314 0.436 0.077 0.181 0.116 0.373 0.112 0.566zM24.918 30.321c0.004-0.153-0.024-0.306-0.079-0.452-0.047-0.125-0.122-0.24-0.222-0.338-0.098-0.093-0.218-0.165-0.352-0.214-0.296-0.098-0.624-0.098-0.92 0-0.134 0.047-0.254 0.12-0.352 0.214-0.102 0.098-0.179 0.212-0.224 0.338-0.106 0.295-0.106 0.609 0 0.904 0.047 0.125 0.124 0.24 0.224 0.338 0.098 0.092 0.218 0.165 0.352 0.212 0.297 0.096 0.623 0.096 0.92 0 0.134-0.047 0.254-0.12 0.352-0.212 0.1-0.098 0.175-0.214 0.222-0.338 0.055-0.145 0.083-0.299 0.079-0.452z"></path>
<path d="M28.635 30.795l0.043 0.102c0.016-0.036 0.031-0.069 0.047-0.102s0.034-0.067 0.055-0.1l1.063-1.68c0.021-0.029 0.039-0.047 0.061-0.053 0.028-0.008 0.057-0.010 0.087-0.009h0.314v2.732h-0.373v-2.008c0-0.025 0-0.055 0-0.085-0.002-0.031-0.002-0.063 0-0.094l-1.069 1.703c-0.014 0.026-0.035 0.047-0.063 0.063s-0.059 0.023-0.091 0.023h-0.061c-0.032 0-0.065-0.008-0.092-0.022s-0.049-0.037-0.063-0.063l-1.1-1.713c0 0.033 0 0.065 0 0.098s0 0.061 0 0.087v2.008h-0.36v-2.727h0.314c0.029-0.002 0.059 0.002 0.087 0.009 0.026 0.012 0.047 0.030 0.059 0.053l1.086 1.682c0.021 0.031 0.039 0.063 0.055 0.098z"></path>
<path d="M32.637 30.659v1.023h-0.416v-2.729h0.928c0.175-0.002 0.35 0.017 0.518 0.059 0.135 0.033 0.259 0.091 0.366 0.171 0.092 0.074 0.163 0.165 0.208 0.267 0.049 0.112 0.073 0.23 0.071 0.349 0.002 0.12-0.024 0.238-0.077 0.349-0.050 0.104-0.127 0.198-0.224 0.273-0.106 0.082-0.232 0.144-0.368 0.181-0.161 0.045-0.332 0.067-0.501 0.063l-0.503-0.008zM32.637 30.366h0.503c0.11 0.002 0.218-0.013 0.322-0.041 0.086-0.025 0.165-0.065 0.233-0.118 0.063-0.049 0.112-0.112 0.141-0.181 0.034-0.073 0.051-0.151 0.049-0.23 0.004-0.076-0.010-0.151-0.041-0.222s-0.082-0.134-0.145-0.187c-0.159-0.108-0.359-0.16-0.56-0.147h-0.503v1.124z"></path>
<path d="M38.231 31.686h-0.328c-0.033 0.002-0.065-0.008-0.092-0.025-0.024-0.017-0.042-0.039-0.055-0.063l-0.283-0.66h-1.422l-0.293 0.66c-0.011 0.024-0.029 0.045-0.053 0.061-0.026 0.018-0.059 0.028-0.094 0.027h-0.328l1.249-2.732h0.432l1.265 2.732zM36.17 30.671h1.173l-0.495-1.112c-0.038-0.084-0.069-0.169-0.094-0.257l-0.047 0.143c-0.014 0.043-0.031 0.083-0.045 0.116l-0.491 1.11z"></path>
<path d="M40.029 28.967c0.025 0.012 0.047 0.029 0.063 0.049l1.821 2.059c0-0.033 0-0.065 0-0.096s0-0.061 0-0.090v-1.935h0.373v2.732h-0.208c-0.030 0-0.059-0.004-0.085-0.016-0.026-0.013-0.049-0.030-0.067-0.051l-1.819-2.057c0.002 0.031 0.002 0.063 0 0.094 0 0.031 0 0.057 0 0.083v1.947h-0.373v-2.732h0.22c0.026-0 0.051 0.004 0.075 0.012z"></path>
<path d="M45.351 30.6v1.085h-0.416v-1.085l-1.151-1.646h0.373c0.032-0.002 0.063 0.006 0.090 0.024 0.023 0.018 0.041 0.039 0.057 0.061l0.721 1.061c0.029 0.045 0.055 0.087 0.075 0.126s0.037 0.078 0.053 0.116l0.055-0.118c0.020-0.043 0.043-0.085 0.071-0.125l0.709-1.069c0.015-0.021 0.033-0.041 0.055-0.057 0.025-0.019 0.057-0.028 0.090-0.027h0.377l-1.153 1.652z"></path>
<path d="M28.429 24.369c0.181 0.020 0.364 0.036 0.55 0.051 2.808-1.092 5.183-2.878 6.829-5.135s2.489-4.887 2.425-7.559l-3.094-2.689c0.629 2.845 0.334 5.786-0.85 8.494s-3.214 5.076-5.86 6.839z"></path>
<path d="M27.324 24.245l0.083 0.014c2.827-1.756 4.982-4.21 6.188-7.043s1.404-5.915 0.572-8.846l-4.408-3.829c1.782 3.147 2.501 6.671 2.069 10.159s-1.992 6.799-4.504 9.546z"></path>
<path d="M42.272 14.882c-0.749 2.937-2.568 5.583-5.186 7.55-0.764 0.578-1.589 1.092-2.464 1.537 2.132-0.544 4.092-1.507 5.728-2.813s2.905-2.922 3.709-4.723l-1.788-1.552z"></path>
<path d="M41.571 14.45l-2.546-2.212c-0.049 2.521-0.874 4.984-2.389 7.135s-3.666 3.909-6.228 5.092h0.012c0.571-0 1.141-0.030 1.709-0.088 2.395-0.849 4.51-2.2 6.157-3.933s2.776-3.792 3.284-5.996z"></path>
<path d="M27.692 2.926l-3.037-2.642c-2.715 0.911-5.049 2.513-6.697 4.597s-2.536 4.55-2.544 7.078v0c0.010 2.794 1.092 5.504 3.075 7.703s4.754 3.76 7.873 4.438c2.784-2.948 4.415-6.591 4.654-10.398s-0.925-7.583-3.324-10.776z"></path>
<path d="M48.586 14.043c-0.011-3.314-1.531-6.491-4.229-8.834s-6.353-3.664-10.168-3.674c-1.762-0.002-3.511 0.281-5.155 0.833l18.59 16.152c0.636-1.428 0.963-2.945 0.961-4.477z"></path>
</symbol>
<symbol id="icon-logo-1" viewBox="0 0 64 32">
<path d="M30.268 2.162h-0.082c-0.126-0.008-0.252-0.010-0.378-0.014v0h-0.273c-0.238 0-0.481 0.006-0.723 0.018-0.018-0.002-0.037-0.002-0.055 0-2.186 0.124-4.329 0.671-6.31 1.609l-0.259 0.125v13.284l0.607-0.206c0.532-0.183 1.1-0.347 1.688-0.501 1.587-0.408 3.218-0.624 4.857-0.645v1.745c-0.217 0.002-0.428 0.008-0.639 0.018h-0.050c-1.261 0.069-2.513 0.261-3.736 0.573-1.55 0.388-3.046 0.971-4.452 1.735v-17.037c1.46-0.852 3.032-1.491 4.67-1.899 1.439-0.371 2.917-0.562 4.401-0.567h0.257c0.306 0.008 0.606 0.021 0.887 0.043 0.739 0.052 1.474 0.169 2.193 0.349v1.718c-0.698-0.162-1.41-0.269-2.125-0.32-0.014-0.002-0.029-0.002-0.043-0.004-0.148-0.012-0.296-0.025-0.435-0.025zM33.291 3.918c0.381 0.029 0.776 0.043 1.174 0.043 1.561-0.006 3.116-0.205 4.627-0.593 1.55-0.39 3.044-0.973 4.45-1.736v16.734c-1.461 0.851-3.034 1.49-4.672 1.899-1.439 0.37-2.917 0.56-4.401 0.566-1.125 0.009-2.246-0.123-3.339-0.394v-16.841c0.258 0.060 0.524 0.115 0.794 0.16 0.443 0.074 0.911 0.13 1.366 0.163zM41.808 4.047l-0.607 0.205c-0.558 0.187-1.121 0.355-1.688 0.505-1.648 0.423-3.342 0.641-5.044 0.647-0.396 0-0.76-0.010-1.113-0.033l-0.484-0.032v13.665l0.416 0.037c0.386 0.033 0.784 0.051 1.184 0.051 1.34-0.006 2.674-0.178 3.972-0.514 1.069-0.268 2.108-0.642 3.104-1.115l0.259-0.125v-13.288z"></path>
<path d="M21.643 25.728c-0.087-0.090-0.193-0.162-0.308-0.209s-0.241-0.069-0.367-0.064c-0.133-0.002-0.266 0.023-0.39 0.074-0.113 0.045-0.217 0.113-0.304 0.199-0.086 0.087-0.152 0.191-0.195 0.305-0.047 0.119-0.072 0.248-0.070 0.377v2.276c-0.006 0.16 0.025 0.32 0.090 0.466 0.054 0.117 0.131 0.22 0.228 0.305 0.091 0.076 0.197 0.132 0.312 0.162 0.111 0.031 0.225 0.047 0.34 0.047 0.127 0.002 0.252-0.026 0.367-0.080 0.113-0.050 0.217-0.121 0.304-0.211 0.084-0.088 0.152-0.191 0.199-0.305 0.049-0.115 0.074-0.238 0.073-0.363v-0.255h-0.595v0.203c0.002 0.070-0.010 0.138-0.035 0.203-0.019 0.049-0.049 0.092-0.086 0.128-0.037 0.029-0.079 0.052-0.125 0.066-0.041 0.014-0.082 0.021-0.125 0.021-0.053 0.006-0.107-0.002-0.156-0.023s-0.092-0.055-0.123-0.099c-0.056-0.092-0.084-0.197-0.078-0.305v-2.122c-0.004-0.117 0.021-0.234 0.073-0.34 0.031-0.048 0.074-0.086 0.126-0.111s0.109-0.033 0.166-0.027c0.051-0.002 0.102 0.009 0.148 0.031s0.086 0.056 0.117 0.097c0.066 0.088 0.101 0.195 0.099 0.305v0.197h0.589v-0.232c0.002-0.136-0.023-0.271-0.073-0.398-0.044-0.119-0.111-0.228-0.199-0.32z"></path>
<path d="M25.178 25.701c-0.189-0.16-0.429-0.249-0.677-0.25-0.121 0-0.242 0.022-0.355 0.064-0.115 0.041-0.222 0.105-0.314 0.186-0.099 0.088-0.177 0.197-0.23 0.319-0.060 0.139-0.090 0.289-0.086 0.441v2.184c-0.004 0.154 0.025 0.306 0.086 0.447 0.054 0.117 0.133 0.222 0.23 0.305 0.091 0.084 0.197 0.15 0.314 0.193 0.113 0.041 0.234 0.064 0.355 0.064s0.242-0.022 0.355-0.064c0.119-0.043 0.228-0.109 0.322-0.193 0.095-0.085 0.171-0.189 0.224-0.305 0.061-0.141 0.091-0.293 0.086-0.447v-2.184c0.002-0.152-0.027-0.302-0.086-0.441-0.053-0.121-0.129-0.228-0.224-0.319zM24.9 28.645c0.005 0.058-0.003 0.117-0.023 0.172s-0.053 0.104-0.095 0.144c-0.078 0.066-0.178 0.102-0.28 0.102s-0.201-0.037-0.28-0.102c-0.042-0.041-0.074-0.090-0.095-0.144s-0.029-0.113-0.023-0.172v-2.184c-0.005-0.058 0.003-0.117 0.023-0.172s0.053-0.104 0.095-0.144c0.078-0.066 0.178-0.102 0.28-0.102s0.201 0.037 0.28 0.102c0.041 0.041 0.074 0.090 0.095 0.144s0.029 0.113 0.023 0.172v2.184z"></path>
<path d="M29.82 29.619v-4.133h-0.572l-0.751 2.188h-0.010l-0.757-2.188h-0.566v4.133h0.591v-2.514h0.010l0.579 1.778h0.294l0.583-1.778h0.010v2.514h0.591z"></path>
<path d="M33.175 25.776c-0.091-0.102-0.205-0.18-0.334-0.226-0.138-0.045-0.283-0.066-0.428-0.064h-0.877v4.133h0.589v-1.614h0.304c0.184 0.008 0.367-0.031 0.531-0.113 0.134-0.074 0.246-0.183 0.324-0.316 0.068-0.11 0.114-0.232 0.135-0.36 0.023-0.156 0.033-0.312 0.032-0.47 0.006-0.199-0.014-0.397-0.058-0.591-0.039-0.143-0.114-0.273-0.217-0.38zM32.871 27.036c-0.002 0.074-0.021 0.148-0.055 0.215-0.033 0.064-0.087 0.115-0.152 0.145-0.087 0.039-0.183 0.057-0.277 0.052h-0.269v-1.405h0.304c0.092-0.004 0.183 0.013 0.265 0.052 0.061 0.035 0.109 0.088 0.138 0.152 0.033 0.072 0.050 0.151 0.051 0.23 0 0.087 0 0.179 0 0.275s0.006 0.195 0 0.284h-0.006z"></path>
<path d="M35.964 25.486h-0.483l-0.911 4.133h0.589l0.173-0.888h0.803l0.173 0.888h0.589l-0.934-4.133zM35.421 28.169l0.29-1.498h0.010l0.288 1.498h-0.589z"></path>
<path d="M39.77 27.976h-0.010l-0.889-2.49h-0.566v4.133h0.589v-2.486h0.012l0.9 2.486h0.554v-4.133h-0.589v2.49z"></path>
<path d="M43.368 25.486l-0.474 1.643h-0.012l-0.474-1.643h-0.624l0.809 2.386v1.747h0.589v-1.747l0.809-2.386h-0.624z"></path>
<path d="M20.001 30.786h0.284v0.796h0.193v-0.796h0.283v-0.164h-0.759v0.164z"></path>
<path d="M22.387 30.622l-0.372 0.959h0.205l0.078-0.218h0.382l0.082 0.218h0.209l-0.381-0.959h-0.205zM22.356 31.203l0.131-0.355 0.131 0.355h-0.261z"></path>
<path d="M24.745 31.229h0.222v0.123c-0.065 0.052-0.145 0.080-0.228 0.080-0.039 0.002-0.078-0.005-0.113-0.021s-0.066-0.041-0.091-0.070c-0.051-0.073-0.076-0.162-0.072-0.25 0-0.214 0.092-0.32 0.277-0.32 0.049-0.004 0.097 0.008 0.137 0.035s0.068 0.070 0.080 0.117l0.189-0.037c-0.041-0.187-0.176-0.282-0.407-0.282-0.123-0.004-0.244 0.041-0.335 0.123-0.049 0.047-0.086 0.105-0.109 0.169s-0.033 0.132-0.029 0.2c-0.006 0.131 0.039 0.26 0.123 0.36 0.047 0.049 0.104 0.086 0.167 0.111s0.13 0.035 0.197 0.030c0.15 0.004 0.296-0.051 0.407-0.152v-0.378h-0.416v0.162z"></path>
<path d="M27.154 30.622h-0.195v0.959h0.672v-0.164h-0.478v-0.796z"></path>
<path d="M29.19 30.622h-0.195v0.959h0.195v-0.959z"></path>
<path d="M31.181 31.264l-0.393-0.641h-0.189v0.959h0.181v-0.627l0.386 0.627h0.193v-0.959h-0.177v0.641z"></path>
<path d="M32.982 31.16h0.478v-0.164h-0.478v-0.211h0.515v-0.164h-0.709v0.959h0.729v-0.164h-0.534v-0.259z"></path>
<path d="M37.347 31.001h-0.378v-0.378h-0.193v0.959h0.193v-0.419h0.378v0.419h0.193v-0.959h-0.193v0.378z"></path>
<path d="M39.158 31.16h0.48v-0.164h-0.48v-0.211h0.516v-0.164h-0.709v0.959h0.727v-0.164h-0.534v-0.259z"></path>
<path d="M41.613 31.16c0.167-0.026 0.252-0.115 0.252-0.267 0.004-0.041-0.002-0.082-0.018-0.119s-0.043-0.070-0.076-0.094c-0.087-0.043-0.184-0.063-0.281-0.056h-0.407v0.959h0.193v-0.401h0.038c0.041-0.002 0.082 0.004 0.119 0.021 0.028 0.017 0.052 0.041 0.068 0.070l0.209 0.305h0.23l-0.117-0.187c-0.052-0.093-0.125-0.172-0.212-0.23zM41.419 31.027h-0.142v-0.241h0.152c0.066-0.006 0.133 0.002 0.195 0.023 0.014 0.012 0.025 0.028 0.033 0.045s0.010 0.036 0.010 0.055c-0 0.019-0.006 0.037-0.015 0.053s-0.021 0.031-0.037 0.041c-0.063 0.019-0.13 0.027-0.195 0.023z"></path>
<path d="M43.465 31.16h0.478v-0.164h-0.478v-0.211h0.516v-0.164h-0.71v0.959h0.729v-0.164h-0.534v-0.259z"></path>
</symbol>
<symbol id="icon-logo" viewBox="0 0 64 32">
<path d="M22.345 0.451l4.667 4.418-8.661-0.005v21.433h22.64v-8.195l4.661 4.412v-22.063h-23.306zM40.785 17.582l-13.231-12.525h13.231v12.525zM36.677 23.161h-14.745v-14.415h1.042v13.439h13.702v0.976zM25.413 29.149l-0.544 1.122-0.544-1.122h-0.457l0.795 1.495v0.871h0.412v-0.871l0.793-1.495h-0.455zM26.097 31.517l0.192-0.552h0.917l0.194 0.552h0.429l-0.896-2.367h-0.369l-0.894 2.367h0.428zM26.748 29.652l0.343 0.982h-0.686l0.344-0.982zM28.917 30.577c-0.060 0.091-0.089 0.191-0.089 0.301 0 0.2 0.070 0.361 0.21 0.486s0.328 0.185 0.562 0.185 0.436-0.064 0.605-0.19l0.134 0.158h0.459l-0.348-0.412c0.136-0.186 0.204-0.426 0.204-0.717h-0.343c0 0.159-0.033 0.304-0.099 0.434l-0.457-0.54 0.161-0.117c0.114-0.082 0.196-0.165 0.245-0.247 0.050-0.084 0.074-0.175 0.074-0.274 0-0.15-0.055-0.274-0.165-0.375-0.109-0.101-0.251-0.153-0.422-0.153-0.191 0-0.342 0.054-0.455 0.163-0.113 0.107-0.169 0.254-0.169 0.439 0 0.076 0.018 0.154 0.054 0.235s0.101 0.18 0.194 0.296c-0.175 0.126-0.293 0.235-0.353 0.327zM29.985 31.101c-0.116 0.089-0.241 0.134-0.373 0.134-0.118 0-0.212-0.035-0.283-0.103s-0.105-0.157-0.105-0.266c0-0.127 0.065-0.239 0.195-0.338l0.050-0.035 0.517 0.61zM29.561 30.052c-0.111-0.138-0.167-0.252-0.167-0.343 0-0.079 0.023-0.144 0.068-0.197s0.107-0.078 0.184-0.078c0.072 0 0.13 0.022 0.177 0.066 0.047 0.043 0.070 0.096 0.070 0.158 0 0.093-0.033 0.169-0.101 0.229l-0.050 0.041-0.181 0.124zM33.413 31.338c0.163-0.142 0.256-0.34 0.28-0.591h-0.41c-0.022 0.169-0.074 0.29-0.154 0.363s-0.202 0.109-0.364 0.109c-0.177 0-0.311-0.068-0.403-0.202s-0.136-0.33-0.136-0.585v-0.21c0.002-0.253 0.051-0.443 0.146-0.574 0.097-0.131 0.234-0.197 0.412-0.197 0.154 0 0.27 0.038 0.35 0.114 0.080 0.074 0.13 0.197 0.15 0.367h0.41c-0.026-0.259-0.119-0.459-0.278-0.601s-0.369-0.213-0.631-0.213c-0.194 0-0.365 0.046-0.513 0.138s-0.261 0.223-0.34 0.393-0.119 0.367-0.119 0.591v0.221c0.004 0.218 0.044 0.409 0.122 0.574s0.189 0.292 0.332 0.383c0.144 0.089 0.311 0.134 0.499 0.134 0.27 0 0.486-0.070 0.649-0.212zM35.831 31.006c0.080-0.175 0.12-0.379 0.12-0.611v-0.132c-0.002-0.231-0.043-0.433-0.124-0.606-0.081-0.175-0.197-0.307-0.346-0.4-0.148-0.093-0.319-0.14-0.512-0.14s-0.364 0.047-0.513 0.142c-0.148 0.093-0.264 0.228-0.346 0.405s-0.122 0.381-0.122 0.611v0.134c0.002 0.226 0.042 0.426 0.124 0.6s0.198 0.307 0.348 0.402c0.15 0.093 0.322 0.14 0.513 0.14 0.194 0 0.365-0.047 0.513-0.14 0.15-0.095 0.264-0.229 0.344-0.403zM35.39 29.668c0.099 0.14 0.15 0.34 0.15 0.603v0.124c0 0.266-0.049 0.469-0.148 0.608-0.097 0.138-0.237 0.208-0.42 0.208-0.18 0-0.321-0.072-0.422-0.213s-0.151-0.343-0.151-0.603v-0.136c0.002-0.255 0.053-0.451 0.153-0.591s0.241-0.21 0.418-0.21c0.182 0 0.323 0.070 0.421 0.21z"></path>
</symbol>
<symbol id="icon-linkedin-1" viewBox="0 0 32 32">
<path d="M31.992 32v-0.001h0.008v-11.736c0-5.741-1.236-10.164-7.948-10.164-3.227 0-5.392 1.771-6.276 3.449h-0.093v-2.913h-6.364v21.364h6.627v-10.579c0-2.785 0.528-5.479 3.977-5.479 3.399 0 3.449 3.179 3.449 5.657v10.401h6.62z"></path>
<path d="M0.528 10.636h6.635v21.364h-6.635v-21.364z"></path>
<path d="M3.843 0c-2.121 0-3.843 1.721-3.843 3.843s1.721 3.879 3.843 3.879c2.121 0 3.843-1.757 3.843-3.879-0.001-2.121-1.723-3.843-3.843-3.843v0z"></path>
</symbol>
<symbol id="icon-facebook-1" viewBox="0 0 32 32">
<path d="M20.603 6.315h2.648v-4.611c-0.457-0.063-2.028-0.204-3.857-0.204-3.817 0-6.432 2.401-6.432 6.814v4.061h-4.212v5.155h4.212v12.97h5.165v-12.969h4.042l0.642-5.155h-4.685v-3.551c0.001-1.49 0.402-2.51 2.478-2.51z"></path>
</symbol>
<symbol id="icon-twitter-1" viewBox="0 0 32 32">
<path d="M32 6.078c-1.19 0.522-2.458 0.868-3.78 1.036 1.36-0.812 2.398-2.088 2.886-3.626-1.268 0.756-2.668 1.29-4.16 1.588-1.204-1.282-2.92-2.076-4.792-2.076-3.632 0-6.556 2.948-6.556 6.562 0 0.52 0.044 1.020 0.152 1.496-5.454-0.266-10.28-2.88-13.522-6.862-0.566 0.982-0.898 2.106-0.898 3.316 0 2.272 1.17 4.286 2.914 5.452-1.054-0.020-2.088-0.326-2.964-0.808 0 0.020 0 0.046 0 0.072 0 3.188 2.274 5.836 5.256 6.446-0.534 0.146-1.116 0.216-1.72 0.216-0.42 0-0.844-0.024-1.242-0.112 0.85 2.598 3.262 4.508 6.13 4.57-2.232 1.746-5.066 2.798-8.134 2.798-0.538 0-1.054-0.024-1.57-0.090 2.906 1.874 6.35 2.944 10.064 2.944 12.072 0 18.672-10 18.672-18.668 0-0.29-0.010-0.57-0.024-0.848 1.302-0.924 2.396-2.078 3.288-3.406z"></path>
</symbol>
<symbol id="icon-instagram-2" viewBox="0 0 32 32">
<path d="M31.969 9.408c-0.075-1.7-0.35-2.869-0.744-3.882-0.406-1.075-1.032-2.038-1.851-2.838-0.8-0.813-1.769-1.444-2.832-1.844-1.019-0.394-2.182-0.669-3.882-0.744-1.713-0.081-2.257-0.1-6.601-0.1s-4.888 0.019-6.595 0.094c-1.7 0.075-2.869 0.35-3.882 0.744-1.075 0.406-2.038 1.031-2.838 1.85-0.813 0.8-1.444 1.769-1.844 2.832-0.394 1.019-0.669 2.182-0.744 3.882-0.081 1.713-0.1 2.257-0.1 6.601s0.019 4.888 0.094 6.595c0.075 1.7 0.35 2.869 0.744 3.882 0.406 1.075 1.038 2.038 1.85 2.838 0.8 0.813 1.769 1.444 2.832 1.844 1.019 0.394 2.182 0.669 3.882 0.744 1.706 0.075 2.25 0.094 6.595 0.094s4.888-0.019 6.595-0.094c1.7-0.075 2.869-0.35 3.882-0.744 2.151-0.832 3.851-2.532 4.682-4.682 0.394-1.019 0.669-2.182 0.744-3.882 0.075-1.707 0.094-2.251 0.094-6.595s-0.006-4.888-0.081-6.595zM29.087 22.473c-0.069 1.563-0.331 2.407-0.55 2.969-0.538 1.394-1.644 2.5-3.038 3.038-0.563 0.219-1.413 0.481-2.969 0.55-1.688 0.075-2.194 0.094-6.464 0.094s-4.782-0.019-6.464-0.094c-1.563-0.069-2.407-0.331-2.969-0.55-0.694-0.256-1.325-0.663-1.838-1.194-0.531-0.519-0.938-1.144-1.194-1.838-0.219-0.563-0.481-1.413-0.55-2.969-0.075-1.688-0.094-2.194-0.094-6.464s0.019-4.782 0.094-6.464c0.069-1.563 0.331-2.407 0.55-2.969 0.256-0.694 0.663-1.325 1.2-1.838 0.519-0.531 1.144-0.938 1.838-1.194 0.563-0.219 1.413-0.481 2.969-0.55 1.688-0.075 2.194-0.094 6.464-0.094 4.276 0 4.782 0.019 6.464 0.094 1.563 0.069 2.407 0.331 2.969 0.55 0.694 0.256 1.325 0.662 1.838 1.194 0.531 0.519 0.938 1.144 1.194 1.838 0.219 0.563 0.481 1.413 0.55 2.969 0.075 1.688 0.094 2.194 0.094 6.464s-0.019 4.77-0.094 6.458z"></path>
<path d="M16.059 7.783c-4.538 0-8.22 3.682-8.22 8.22s3.682 8.22 8.22 8.22c4.539 0 8.22-3.682 8.22-8.22s-3.682-8.22-8.22-8.22zM16.059 21.335c-2.944 0-5.332-2.388-5.332-5.332s2.388-5.332 5.332-5.332c2.944 0 5.332 2.388 5.332 5.332s-2.388 5.332-5.332 5.332z"></path>
<path d="M26.524 7.458c0 1.060-0.859 1.919-1.919 1.919s-1.919-0.859-1.919-1.919c0-1.060 0.859-1.919 1.919-1.919s1.919 0.859 1.919 1.919z"></path>
</symbol>
<symbol id="icon-envelope" viewBox="0 0 32 32">
<path d="M29 4h-26c-1.654 0-3 1.346-3 3v18c0 1.654 1.346 3 3 3h26c1.654 0 3-1.346 3-3v-18c0-1.654-1.346-3-3-3zM29 6c0.136 0 0.265 0.028 0.383 0.077l-13.383 11.599-13.383-11.599c0.118-0.049 0.247-0.077 0.383-0.077h26zM29 26h-26c-0.552 0-1-0.448-1-1v-16.81l13.345 11.565c0.188 0.163 0.422 0.244 0.655 0.244s0.467-0.081 0.655-0.244l13.345-11.565v16.81c0 0.552-0.448 1-1 1z"></path>
</symbol>
<symbol id="icon-smartphone" viewBox="0 0 32 32">
<path d="M23 0h-14c-1.654 0-3 1.346-3 3v26c0 1.654 1.346 3 3 3h14c1.654 0 3-1.346 3-3v-26c0-1.654-1.346-3-3-3zM9 2h14c0.552 0 1 0.448 1 1v21h-16v-21c0-0.552 0.448-1 1-1zM23 30h-14c-0.552 0-1-0.448-1-1v-3h16v3c0 0.552-0.448 1-1 1z"></path>
<path d="M10.707 27.478c0.391 0.365 0.391 0.956 0 1.321s-1.024 0.365-1.414 0c-0.391-0.365-0.391-0.956 0-1.321s1.024-0.365 1.414 0z"></path>
</symbol>
<symbol id="icon-envelope-hover" viewBox="0 0 32 32">
<path d="M29 4h-26c-1.654 0-3 1.346-3 3v18c0 1.654 1.346 3 3 3h26c1.654 0 3-1.346 3-3v-18c0-1.654-1.346-3-3-3zM29 6c0.136 0 0.265 0.028 0.383 0.077l-13.383 11.599-13.383-11.599c0.118-0.049 0.247-0.077 0.383-0.077h26zM29 26h-26c-0.552 0-1-0.448-1-1v-16.81l13.345 11.565c0.188 0.163 0.422 0.244 0.655 0.244s0.467-0.081 0.655-0.244l13.345-11.565v16.81c0 0.552-0.448 1-1 1z"></path>
</symbol>
<symbol id="icon-astronaut-1" viewBox="0 0 32 32">
<path d="M31.974 4.524c-0.063-0.193-0.229-0.333-0.43-0.363l-1.91-0.278-0.855-1.731c-0.179-0.365-0.777-0.365-0.956 0l-0.855 1.731-1.91 0.278c-0.201 0.029-0.367 0.17-0.431 0.363-0.062 0.193-0.011 0.405 0.135 0.547l1.383 1.348-0.326 1.903c-0.034 0.2 0.048 0.402 0.212 0.522 0.166 0.121 0.382 0.135 0.562 0.040l1.709-0.899 1.709 0.899c0.078 0.041 0.164 0.061 0.249 0.061 0.11 0 0.221-0.034 0.314-0.102 0.164-0.119 0.246-0.322 0.212-0.522l-0.326-1.903 1.383-1.348c0.145-0.142 0.197-0.354 0.135-0.547zM29.511 5.851c-0.125 0.122-0.183 0.299-0.153 0.472l0.191 1.114-1-0.526c-0.078-0.041-0.163-0.061-0.249-0.061s-0.17 0.020-0.249 0.061l-1.001 0.526 0.191-1.114c0.030-0.173-0.028-0.349-0.153-0.472l-0.81-0.789 1.119-0.163c0.174-0.025 0.324-0.134 0.402-0.292l0.5-1.013 0.5 1.013c0.078 0.157 0.228 0.267 0.402 0.292l1.119 0.163-0.809 0.789z"></path>
<path d="M26.134 20.522h-1.067v1.067h1.067v-1.067z"></path>
<path d="M26.134 22.656h-1.067v1.067h1.067v-1.067z"></path>
<path d="M27.2 21.589h-1.067v1.067h1.067v-1.067z"></path>
<path d="M25.067 21.589h-1.067v1.067h1.067v-1.067z"></path>
<path d="M22.4 26.389h-1.067v1.067h1.067v-1.067z"></path>
<path d="M22.4 28.522h-1.067v1.067h1.067v-1.067z"></path>
<path d="M23.467 27.456h-1.067v1.067h1.067v-1.067z"></path>
<path d="M21.333 27.456h-1.067v1.067h1.067v-1.067z"></path>
<path d="M16 24.256h-1.067v1.067h1.067v-1.067z"></path>
<path d="M16 26.389h-1.067v1.067h1.067v-1.067z"></path>
<path d="M17.067 25.322h-1.067v1.067h1.067v-1.067z"></path>
<path d="M14.933 25.322h-1.067v1.067h1.067v-1.067z"></path>
<path d="M5.867 6.122h-1.067v1.067h1.067v-1.067z"></path>
<path d="M5.867 8.255h-1.067v1.067h1.067v-1.067z"></path>
<path d="M6.933 7.189h-1.067v1.067h1.067v-1.067z"></path>
<path d="M4.8 7.189h-1.067v1.067h1.067v-1.067z"></path>
<path d="M24.715 14.159c-0.287-0.388-0.709-0.637-1.188-0.705-0.481-0.068-0.956 0.058-1.34 0.352l-1.252 0.96-1.898 1.417-1.358-0.541c2.421-1.086 4.114-3.508 4.114-6.32 0-3.823-3.123-6.933-6.961-6.933s-6.961 3.11-6.961 6.933c0 1.386 0.414 2.674 1.12 3.758l-2.764-0.024c-0.002 0-0.003 0-0.005 0-0.009 0-0.015 0.004-0.023 0.005-0.053 0.002-0.105 0.013-0.155 0.031-0.013 0.005-0.026 0.008-0.038 0.013-0.006 0.003-0.013 0.003-0.019 0.006l-3.233 1.596c-0.001 0-0.001 0-0.001 0.001l-1.893 0.911c-0.021 0.009-0.042 0.021-0.063 0.035-0.755 0.502-1.012 1.489-0.598 2.295 0.22 0.429 0.595 0.745 1.056 0.889 0.178 0.055 0.359 0.083 0.539 0.083 0.29 0 0.577-0.071 0.839-0.211l1.388-0.738 2.264-1.169 1.357-0.008-5.442 5.416c-0.001 0.001-0.001 0.001-0.002 0.001l-1.339 1.333c-0.316 0.315-0.49 0.732-0.49 1.178s0.174 0.863 0.49 1.179c0.325 0.323 0.752 0.485 1.179 0.485s0.854-0.162 1.18-0.485l1.314-1.309 1.741-1.3 0.901 0.897-1.762 1.754c-0 0.001-0.001 0.001-0.002 0.001l-1.339 1.333c-0.316 0.315-0.49 0.732-0.49 1.178s0.174 0.863 0.49 1.179c0.325 0.323 0.753 0.485 1.18 0.485s0.855-0.162 1.18-0.485l3.482-3.467c0.001-0.001 0.001-0.001 0.001-0.002l1.010-1-0.004-0.004c0.006-0.006 0.015-0.009 0.022-0.015l5.166-5.658 3.471 0.494c0.025 0.004 0.050 0.005 0.075 0.005 0.065 0 0.127-0.015 0.187-0.038 0.018-0.006 0.033-0.015 0.050-0.023 0.019-0.010 0.039-0.015 0.058-0.027l3.213-2.133c0.012-0.008 0.018-0.021 0.029-0.029 0.013-0.010 0.029-0.014 0.041-0.026l1.271-1.191c0.662-0.62 0.753-1.635 0.212-2.362zM2.13 17.77c-0.173 0.093-0.37 0.111-0.558 0.052-0.187-0.058-0.338-0.186-0.427-0.358-0.161-0.314-0.068-0.695 0.214-0.902l1.314-0.632 0.449 1.312-0.992 0.528zM5.628 15.942l-1.548 0.8-0.439-1.283 2.027-1.001-0.040 1.484zM20.727 9.322c0 0.918-0.219 1.785-0.599 2.559l-4.181-1.899c-0.044-0.573-0.341-1.075-0.788-1.388l1.464-4.86c2.378 0.756 4.105 2.974 4.105 5.588zM8.938 9.322c0-3.235 2.644-5.867 5.894-5.867 0.253 0 0.5 0.021 0.745 0.052l-1.432 4.754c-0.019-0.001-0.037-0.006-0.057-0.006-1.033 0-1.873 0.837-1.873 1.867s0.84 1.867 1.873 1.867c0.694 0 1.294-0.383 1.618-0.945l3.862 1.755c-1.075 1.446-2.795 2.39-4.737 2.39-3.25 0-5.894-2.632-5.894-5.867zM14.894 10.122c0 0.441-0.362 0.8-0.806 0.8s-0.806-0.359-0.806-0.8c0-0.441 0.362-0.8 0.806-0.8s0.806 0.359 0.806 0.8zM2.465 25.146c-0.236 0.234-0.619 0.234-0.854 0.001-0.114-0.114-0.176-0.263-0.176-0.423s0.062-0.309 0.176-0.421l0.962-0.958 0.851 0.848-0.959 0.955zM5.679 28.88c-0.236 0.234-0.619 0.235-0.855 0.001-0.114-0.114-0.176-0.263-0.176-0.423s0.062-0.309 0.176-0.421l0.963-0.959 0.852 0.848-0.96 0.955zM9.16 25.411c-0.001 0-0.001 0-0.002 0.001l-1.765 1.76-0.852-0.848 1.763-1.755c0 0 0 0 0-0s0.001-0.001 0.002-0.001c0.040-0.040 0.065-0.088 0.090-0.135 0.007-0.014 0.020-0.026 0.026-0.040 0.017-0.041 0.019-0.085 0.026-0.129 0.003-0.025 0.014-0.047 0.014-0.073 0-0.036-0.013-0.070-0.020-0.106-0.006-0.032-0.006-0.065-0.019-0.095-0.020-0.050-0.055-0.094-0.091-0.138-0.010-0.012-0.014-0.027-0.025-0.038 0 0 0 0-0.001 0s-0.001-0.002-0.001-0.002l-1.607-1.6c-0.017-0.017-0.039-0.024-0.058-0.038-0.028-0.022-0.055-0.042-0.087-0.058-0.030-0.015-0.061-0.024-0.093-0.033-0.034-0.010-0.067-0.017-0.103-0.020-0.033-0.002-0.063 0.001-0.095 0.005-0.036 0.004-0.069 0.009-0.104 0.020-0.034 0.011-0.063 0.027-0.094 0.045-0.020 0.011-0.042 0.015-0.061 0.029l-1.773 1.324-0.901-0.897 2.399-2.386 4.361 4.289-0.928 0.919zM15.979 18.394c-0.015-0.002-0.030 0.004-0.045 0.003-0.039-0.002-0.076 0.001-0.115 0.007-0.030 0.005-0.059 0.011-0.088 0.021-0.034 0.012-0.065 0.028-0.097 0.047-0.030 0.018-0.057 0.037-0.083 0.061-0.013 0.011-0.028 0.017-0.040 0.029l-4.698 5.146-4.328-4.257 2.833-2.818c0.209-0.208 0.21-0.546 0.002-0.755-0.105-0.105-0.243-0.157-0.381-0.156v-0.001l-2.219 0.013 0.028-1.607 3.104 0.027c1.265 1.294 3.029 2.101 4.981 2.101 0.437 0 0.864-0.045 1.279-0.123 0.040 0.032 0.079 0.065 0.13 0.085l2.41 0.96 0.331 1.644-3.003-0.427zM20.020 18.572l-0.313-1.558 1.446-1.080 0.947 1.257-2.080 1.381zM23.774 15.741l-0.838 0.785-0.931-1.236 0.831-0.637c0.155-0.119 0.351-0.168 0.543-0.143 0.193 0.027 0.364 0.128 0.48 0.284 0.217 0.292 0.18 0.699-0.085 0.947z"></path>
<path d="M13.602 18.544l-2.143-2.133c-0.207-0.207-0.545-0.207-0.753 0l-2.142 2.133c-0.1 0.101-0.157 0.236-0.157 0.378s0.056 0.278 0.157 0.378l2.142 2.133c0.104 0.103 0.241 0.155 0.377 0.155s0.273-0.052 0.376-0.155l2.143-2.133c0.1-0.1 0.157-0.236 0.157-0.378s-0.057-0.278-0.157-0.378zM11.083 20.303l-1.387-1.381 1.387-1.381 1.387 1.381-1.387 1.381z"></path>
<path d="M17.164 5.071l-0.258 1.036c0.071 0.018 1.738 0.452 1.738 2.149h1.067c-0-2.017-1.666-2.965-2.547-3.185z"></path>
<path d="M19.711 9.322h-1.067v1.067h1.067v-1.067z"></path>
</symbol>
<symbol id="icon-diagram-1" viewBox="0 0 32 32">
<path d="M14.926 14.965h1.066v4.798h-1.066v-4.797z"></path>
<path d="M19.19 17.097h1.066v2.665h-1.066v-2.665z"></path>
<path d="M10.661 18.696h1.066v1.066h-1.066v-1.066z"></path>
<path d="M7.463 18.163h1.066v1.599h-1.066v-1.599z"></path>
<path d="M1.599 28.291h25.587c0.883 0 1.599-0.716 1.599-1.599v-2.132c0-0.883-0.716-1.599-1.599-1.599h-0.533v-13.293l3.028-2.868c0.703 0.346 1.553 0.136 2.013-0.499s0.396-1.508-0.152-2.068-1.42-0.644-2.065-0.198c-0.644 0.446-0.873 1.292-0.542 2.002l-2.281 2.163v-1.23c0-0.883-0.716-1.599-1.599-1.599h-21.322c-0.883 0-1.599 0.716-1.599 1.599v15.992h-0.533c-0.883 0-1.599 0.716-1.599 1.599v2.132c0 0.883 0.716 1.599 1.599 1.599zM30.384 4.837c0.294 0 0.533 0.239 0.533 0.533s-0.239 0.533-0.533 0.533c-0.294 0-0.533-0.239-0.533-0.533s0.239-0.533 0.533-0.533zM3.198 6.969c0-0.294 0.239-0.533 0.533-0.533h21.322c0.294 0 0.533 0.239 0.533 0.533v2.239l-1.066 1.013v-2.186c0-0.294-0.239-0.533-0.533-0.533h-19.19c-0.294 0-0.533 0.239-0.533 0.533v13.326c0 0.294 0.239 0.533 0.533 0.533h19.19c0.294 0 0.533-0.239 0.533-0.533v-9.674l1.066-1.010v12.284h-22.388v-15.992zM7.996 13.899c-0.721-0.002-1.354 0.478-1.546 1.174s0.105 1.433 0.725 1.801c0.62 0.368 1.41 0.276 1.928-0.226l1.853 0.93c0.215 0.108 0.476 0.057 0.636-0.123l3.939-4.431 3.872 2.901c0.208 0.156 0.498 0.139 0.686-0.039l3.365-3.188v8.131h-18.124v-12.26h18.124v2.66l-3.771 3.572-3.904-2.927c-0.222-0.166-0.534-0.135-0.718 0.072l-3.993 4.493-1.493-0.746c0.011-0.064 0.018-0.129 0.020-0.193 0-0.883-0.716-1.599-1.599-1.599zM8.529 15.498c0 0.294-0.239 0.533-0.533 0.533s-0.533-0.239-0.533-0.533c0-0.294 0.239-0.533 0.533-0.533s0.533 0.239 0.533 0.533zM11.727 24.027h5.331v0.533c0 0.294-0.239 0.533-0.533 0.533h-4.264c-0.294 0-0.533-0.239-0.533-0.533v-0.533zM1.066 24.56c0-0.294 0.239-0.533 0.533-0.533h9.062v0.533c0 0.883 0.716 1.599 1.599 1.599h4.264c0.883 0 1.599-0.716 1.599-1.599v-0.533h9.062c0.294 0 0.533 0.239 0.533 0.533v2.132c0 0.294-0.239 0.533-0.533 0.533h-25.587c-0.294 0-0.533-0.239-0.533-0.533v-2.132z"></path>
</symbol>
<symbol id="icon-clock-1" viewBox="0 0 32 32">
<path d="M31.297 15.301c-0.002-8.452-6.855-15.303-15.308-15.301s-15.303 6.855-15.301 15.308c0.001 6.658 4.307 12.551 10.649 14.576 0.061 0.019 0.124 0.029 0.187 0.029 0.121-0 0.239-0.032 0.342-0.094 0.135-0.080 0.236-0.207 0.283-0.356l3.865-12.25c1.057-0.005 1.909-0.866 1.903-1.923s-0.866-1.909-1.923-1.903c-0.284 0.001-0.565 0.067-0.82 0.191l-5.106-5.107c-0.253-0.245-0.657-0.238-0.902 0.016-0.239 0.247-0.239 0.639 0 0.886l5.103 5.109c-0.392 0.799-0.168 1.764 0.536 2.309l-3.683 11.673c-7.278-2.681-11.004-10.754-8.323-18.032s10.754-11.004 18.032-8.323 11.004 10.754 8.323 18.032c-1.31 3.556-4.001 6.431-7.462 7.973l-0.398-1.874c-0.073-0.344-0.411-0.565-0.756-0.492-0.109 0.023-0.209 0.074-0.292 0.148l-3.837 3.426c-0.263 0.234-0.287 0.637-0.052 0.9 0.076 0.085 0.174 0.149 0.283 0.184l4.899 1.563c0.335 0.108 0.694-0.077 0.802-0.412 0.034-0.106 0.040-0.219 0.017-0.328l-0.391-1.839c5.664-2.388 9.342-7.942 9.329-14.089zM15.992 14.664c0.352 0 0.638 0.286 0.638 0.638s-0.286 0.638-0.638 0.638c-0.352 0-0.638-0.285-0.638-0.638s0.285-0.638 0.638-0.638zM18.093 29.528l2.184-1.948 0.603 2.84-2.787-0.892z"></path>
<path d="M15.354 3.185v1.275c0 0.352 0.285 0.638 0.638 0.638s0.638-0.285 0.638-0.638v-1.275c0-0.352-0.286-0.638-0.638-0.638s-0.638 0.286-0.638 0.638z"></path>
<path d="M3.876 14.664c-0.352 0-0.638 0.286-0.638 0.638s0.285 0.638 0.638 0.638h1.275c0.352 0 0.638-0.285 0.638-0.638s-0.285-0.638-0.638-0.638h-1.275z"></path>
<path d="M28.108 15.939c0.352 0 0.638-0.285 0.638-0.638s-0.285-0.638-0.638-0.638h-1.275c-0.352 0-0.638 0.286-0.638 0.638s0.286 0.638 0.638 0.638h1.275z"></path>
</symbol>
<symbol id="icon-antenna-1" viewBox="0 0 32 32">
<path d="M30.773 22.098l-8.443-8.505 0.937-4.615c0.242 0.094 0.499 0.144 0.758 0.146h0.006c1.192 0.014 2.17-0.941 2.184-2.133s-0.941-2.17-2.133-2.184c-1.192-0.014-2.17 0.941-2.184 2.133-0.003 0.255 0.039 0.509 0.125 0.749l-4.96 0.605-8.091-8.133c-0.099-0.101-0.235-0.159-0.377-0.16-0.14 0.001-0.274 0.056-0.373 0.155l-1.513 1.504c-0.208 0.208-0.208 0.546 0 0.754l0.814 0.826c-3.153 5.798-2.129 12.978 2.519 17.663 0.043 0.041 0.092 0.074 0.146 0.098-0.034 0.18-0.051 0.364-0.052 0.547v6.187h-6.4c-1.472 0.002-2.665 1.195-2.667 2.667v1.067c0 0.295 0.239 0.533 0.533 0.533h24.533c0.295 0 0.533-0.239 0.533-0.533v-1.067c-0.002-1.472-1.195-2.665-2.667-2.667h-6.4v-2.742c1.003 0.21 2.024 0.317 3.049 0.32 2.458-0.003 4.877-0.615 7.040-1.783l0.818 0.823c0.099 0.101 0.235 0.159 0.377 0.16 0.14-0.001 0.274-0.056 0.373-0.155l1.513-1.504c0.208-0.208 0.208-0.546 0-0.754zM23.28 6.233c0.418-0.415 1.093-0.414 1.508 0.004s0.414 1.093-0.004 1.508c-0.2 0.199-0.47 0.31-0.752 0.31h-0.003c-0.589-0.003-1.064-0.483-1.061-1.072 0.002-0.282 0.115-0.552 0.314-0.751h-0.002zM22.024 9.738l-0.598 2.946-1.175-1.182 1.774-1.763zM21.419 8.836l-1.92 1.909-1.485-1.493 3.405-0.415zM24.004 28.8c0.884 0 1.6 0.716 1.6 1.6v0.533h-23.467v-0.533c0-0.884 0.716-1.6 1.6-1.6h20.267zM16.537 26.667v1.067h-5.333v-1.067h5.333zM11.204 25.6v-4.053c0-1.294 1.196-2.347 2.667-2.347s2.667 1.053 2.667 2.347v4.053h-5.333zM17.604 23.904v-2.357c0-1.882-1.675-3.413-3.733-3.413-1.331-0.020-2.576 0.657-3.281 1.786-4.058-4.274-4.971-10.645-2.279-15.887l18.602 18.708c-2.872 1.461-6.165 1.873-9.309 1.163zM28.893 23.22l-21.057-21.181 0.755-0.752 7.935 7.98c0.004 0 0.006 0.007 0.010 0.010l13.115 13.191-0.757 0.752z"></path>
<path d="M13.876 20.267h-0.005c-0.884-0.001-1.601 0.714-1.602 1.598s0.714 1.601 1.598 1.602h0.005c0.884 0.001 1.601-0.714 1.602-1.598s-0.714-1.601-1.598-1.602zM14.249 22.245c-0.1 0.1-0.236 0.156-0.378 0.155-0.295-0.002-0.532-0.242-0.531-0.536 0.001-0.141 0.057-0.276 0.157-0.375s0.233-0.154 0.373-0.155c0.295 0.002 0.532 0.241 0.53 0.536-0.001 0.141-0.057 0.276-0.157 0.375h0.005z"></path>
</symbol>
<symbol id="icon-phone-black" viewBox="0 0 32 32">
<path d="M22 20c-2 2-2 4-4 4s-4-2-6-4-4-4-4-6 2-2 4-4-4-8-6-8-6 6-6 6c0 4 4.109 12.109 8 16s12 8 16 8c0 0 6-4 6-6s-6-8-8-6z"></path>
</symbol>
<symbol id="icon-person-black" viewBox="0 0 32 32">
<path d="M18 22.082v-1.649c2.203-1.241 4-4.337 4-7.432 0-4.971 0-9-6-9s-6 4.029-6 9c0 3.096 1.797 6.191 4 7.432v1.649c-6.784 0.555-12 3.888-12 7.918h28c0-4.030-5.216-7.364-12-7.918z"></path>
</symbol>
<symbol id="icon-icon-check" viewBox="0 0 32 32">
<path d="M27 4l-15 15-7-7-5 5 12 12 20-20z"></path>
</symbol>
<symbol id="icon-menu40px" viewBox="0 0 32 32">
<path d="M4.9 11.067v-2.467h22.2v2.467h-22.2zM4.9 17.233h22.2v-2.467h-22.2v2.467zM4.9 23.4h22.2v-2.467h-22.2v2.467z"></path>
</symbol>
</defs>
</svg>